<svg width="700" height="700" viewBox="0 0 700 700" fill="none" xmlns="http://www.w3.org/2000/svg">
  <path
    d="M425.104 646.771C411.493 660.382 395.087 667.188 375.885 667.188C356.684 667.188 340.278 660.382 326.667 646.771L53.2291 373.333C45.9375 366.042 40.8333 358.264 37.9166 350C35 341.736 33.5416 332.986 33.5416 323.75V102.083C33.5416 82.6389 40.1041 66.2326 53.2291 52.8646C66.3541 39.4965 82.6388 32.8125 102.083 32.8125H323.75C332.986 32.8125 341.979 34.3924 350.729 37.5521C359.479 40.7118 367.5 45.9375 374.792 53.2292L646.771 324.479C660.868 338.576 667.917 355.347 667.917 374.792C667.917 394.236 660.868 411.007 646.771 425.104L425.104 646.771ZM378.437 599.375L600.104 377.708L323.75 102.083H102.083V323.75L378.437 599.375ZM178.646 215.833C188.854 215.833 197.726 212.066 205.26 204.531C212.795 196.997 216.562 188.125 216.562 177.917C216.562 167.708 212.795 158.837 205.26 151.302C197.726 143.767 188.854 140 178.646 140C168.437 140 159.566 143.767 152.031 151.302C144.496 158.837 140.729 167.708 140.729 177.917C140.729 188.125 144.496 196.997 152.031 204.531C159.566 212.066 168.437 215.833 178.646 215.833Z"
    fill="#000000" />
  <path
    d="M321.429 345.481C321.994 345.455 322.523 345.668 323.015 346.117C324.295 347.287 324.35 348.511 323.18 349.79C322.011 351.07 320.787 351.125 319.507 349.956C319.015 349.506 318.756 348.999 318.731 348.433L249.49 285.155L226.283 310.549L223.331 307.85L217.048 256.32C215.769 255.151 215.714 253.926 216.883 252.647C218.052 251.367 219.277 251.312 220.556 252.482C220.95 252.841 221.258 253.394 221.48 254.139L249.236 279.504L253.013 275.37C253.168 274.608 253.425 274.031 253.785 273.637C254.954 272.357 256.179 272.302 257.458 273.472C258.738 274.641 258.793 275.865 257.623 277.145C257.264 277.539 256.711 277.847 255.966 278.069L252.188 282.203L321.429 345.481ZM246.537 282.457L221.292 259.385L226.569 304.307L246.537 282.457ZM349.779 286.888C352.535 289.407 354.792 292.372 356.55 295.785C358.209 299.108 358.841 302.666 358.446 306.459C358.042 310.063 356.086 313.785 352.578 317.623C348.98 321.56 345.359 323.941 341.715 324.766C338.063 325.402 334.508 325.043 331.05 323.688C327.583 322.145 324.471 320.115 321.715 317.596L235.496 238.802C234.734 238.648 234.156 238.391 233.763 238.031C232.483 236.861 232.428 235.637 233.597 234.358C234.767 233.078 235.991 233.023 237.271 234.192C237.664 234.552 237.972 235.104 238.195 235.849L324.414 314.644C326.579 316.622 329.059 318.257 331.854 319.547C334.739 320.738 337.68 321.078 340.677 320.565C343.764 319.955 346.747 318.074 349.625 314.925C352.503 311.775 354.063 308.685 354.304 305.654C354.635 302.525 354.033 299.626 352.497 296.958C351.051 294.192 349.246 291.82 347.081 289.841L260.862 211.047C260.1 210.892 259.522 210.635 259.128 210.275C257.849 209.106 257.793 207.882 258.963 206.602C260.132 205.323 261.356 205.267 262.636 206.437C263.03 206.797 263.338 207.349 263.56 208.094L349.779 286.888ZM429.133 495.932C429.698 495.907 430.227 496.119 430.719 496.569C431.998 497.738 432.053 498.963 430.884 500.242C429.715 501.522 428.49 501.577 427.211 500.407C426.719 499.958 426.46 499.45 426.434 498.885L326.485 407.543C325.723 407.389 325.145 407.132 324.752 406.772C323.472 405.603 323.417 404.378 324.586 403.099C325.756 401.819 326.98 401.764 328.26 402.933C328.653 403.293 328.961 403.846 329.184 404.591L429.133 495.932ZM353.453 398.194C354.018 398.169 354.547 398.381 355.039 398.831C356.318 400 356.373 401.225 355.204 402.504C354.035 403.784 352.81 403.839 351.531 402.669C351.039 402.22 350.78 401.712 350.754 401.147L346.473 397.234C345.711 397.08 345.133 396.823 344.74 396.463C343.46 395.294 343.405 394.069 344.574 392.79C345.744 391.51 346.968 391.455 348.247 392.624C348.641 392.984 348.949 393.537 349.171 394.282L353.453 398.194ZM443.363 480.362C443.928 480.336 444.457 480.548 444.949 480.998C446.228 482.167 446.283 483.392 445.114 484.671C443.945 485.951 442.72 486.006 441.441 484.837C440.949 484.387 440.69 483.879 440.664 483.314L370.242 418.957C369.48 418.802 368.903 418.545 368.509 418.185C367.229 417.016 367.174 415.792 368.344 414.512C369.513 413.233 370.737 413.177 372.017 414.347C372.41 414.707 372.718 415.259 372.941 416.004L443.363 480.362ZM461.101 460.952C461.666 460.927 462.194 461.139 462.687 461.589C463.966 462.758 464.021 463.982 462.852 465.262C461.683 466.541 460.458 466.596 459.179 465.427C458.687 464.977 458.428 464.47 458.402 463.905L389.161 400.627L383.09 407.27C383.115 407.835 382.903 408.364 382.453 408.856C381.284 410.136 380.06 410.191 378.78 409.021C377.501 407.852 377.446 406.628 378.615 405.348C379.065 404.856 379.572 404.597 380.137 404.572L386.209 397.928L373.66 386.46C370.904 383.941 368.7 381.115 367.049 377.98C365.3 374.756 364.533 371.346 364.749 367.75C365.054 364.055 366.773 360.297 369.904 356.476C370.058 355.714 370.315 355.136 370.675 354.742C371.845 353.463 373.069 353.408 374.349 354.577C375.628 355.746 375.683 356.971 374.514 358.25C374.154 358.644 373.602 358.952 372.857 359.174C369.194 363.775 368.026 368.216 369.351 372.497C370.766 376.681 373.102 380.351 376.358 383.507L388.907 394.975L399.431 383.46C399.585 382.698 399.843 382.12 400.202 381.726C401.372 380.447 402.596 380.392 403.876 381.561C405.155 382.73 405.21 383.955 404.041 385.234C403.681 385.628 403.129 385.936 402.384 386.158L391.86 397.674L461.101 460.952ZM467.177 374.257L442.081 401.717L468.065 425.463C470.329 427.532 472.858 429.211 475.653 430.501C478.538 431.693 481.479 432.032 484.476 431.52C487.563 430.909 490.501 429.078 493.289 426.027C497.517 421.401 499.115 417.082 498.086 413.07C497.047 408.87 494.949 405.237 491.791 402.17C491.226 402.196 490.697 401.983 490.205 401.534C488.926 400.364 488.87 399.14 490.04 397.86C491.209 396.581 492.434 396.526 493.713 397.695C494.205 398.145 494.464 398.652 494.489 399.217C496.967 401.843 498.937 404.727 500.4 407.87C501.862 411.013 502.392 414.387 501.988 417.991C501.575 421.407 499.66 424.985 496.242 428.726C492.734 432.564 489.109 434.851 485.367 435.585C481.715 436.221 478.16 435.862 474.701 434.508C471.234 432.965 468.123 430.935 465.367 428.416L422.553 389.289C419.698 386.68 417.396 383.764 415.647 380.539C413.987 377.216 413.31 373.708 413.616 370.013C414.012 366.221 415.963 362.405 419.471 358.566C422.979 354.728 426.559 352.49 430.211 351.854C433.953 351.12 437.509 351.479 440.877 352.932C444.336 354.286 447.492 356.267 450.346 358.876L467.177 374.257ZM461.526 374.511L447.648 361.829C445.384 359.76 442.904 358.125 440.208 356.925C437.413 355.636 434.517 355.247 431.52 355.759C428.424 356.182 425.392 358.017 422.424 361.265C419.636 364.316 418.125 367.451 417.893 370.67C417.651 373.701 418.254 376.6 419.699 379.366C421.137 381.944 422.987 384.267 425.251 386.336L439.129 399.019L461.526 374.511Z"
    fill="#000000" />
  <path
    d="M321.429 345.481L319.406 347.695L320.323 348.534L321.564 348.478L321.429 345.481ZM318.731 348.433L321.728 348.299L321.672 347.057L320.755 346.219L318.731 348.433ZM249.49 285.155L251.514 282.941L249.299 280.917L247.275 283.131L249.49 285.155ZM226.283 310.549L224.26 312.763L226.474 314.787L228.498 312.572L226.283 310.549ZM223.331 307.85L220.353 308.213L220.487 309.316L221.307 310.065L223.331 307.85ZM217.048 256.32L220.026 255.957L219.892 254.855L219.072 254.106L217.048 256.32ZM221.48 254.139L218.605 254.997L218.843 255.793L219.456 256.353L221.48 254.139ZM249.236 279.504L247.212 281.719L249.426 283.743L251.45 281.528L249.236 279.504ZM253.013 275.37L255.228 277.394L255.789 276.781L255.954 275.966L253.013 275.37ZM255.966 278.069L255.108 275.194L254.312 275.432L253.752 276.045L255.966 278.069ZM252.188 282.203L249.974 280.179L247.95 282.393L250.165 284.417L252.188 282.203ZM246.537 282.457L248.752 284.481L250.776 282.266L248.561 280.242L246.537 282.457ZM221.292 259.385L223.315 257.171L217.373 251.74L218.312 259.735L221.292 259.385ZM226.569 304.307L223.589 304.657L224.355 311.176L228.783 306.331L226.569 304.307ZM321.564 348.478C321.416 348.484 321.263 348.457 321.132 348.405C321.011 348.356 320.966 348.309 320.991 348.332L325.039 343.903C324.072 343.019 322.795 342.416 321.294 342.484L321.564 348.478ZM320.991 348.332C321.133 348.461 321.15 348.511 321.125 348.465C321.092 348.406 321.029 348.259 321.019 348.047C321.01 347.836 321.06 347.683 321.087 347.622C321.108 347.574 321.096 347.625 320.966 347.767L325.395 351.814C326.292 350.833 327.089 349.465 327.013 347.778C326.937 346.09 326.02 344.799 325.039 343.903L320.991 348.332ZM320.966 347.767C320.836 347.909 320.787 347.926 320.832 347.9C320.891 347.867 321.039 347.804 321.25 347.794C321.462 347.785 321.614 347.835 321.676 347.862C321.724 347.884 321.673 347.871 321.531 347.741L317.483 352.17C318.465 353.067 319.833 353.864 321.52 353.788C323.207 353.712 324.498 352.795 325.395 351.814L320.966 347.767ZM321.531 347.741C321.506 347.718 321.557 347.759 321.617 347.875C321.68 348 321.721 348.15 321.728 348.299L315.734 348.568C315.801 350.069 316.517 351.287 317.483 352.17L321.531 347.741ZM320.755 346.219L251.514 282.941L247.466 287.37L316.707 350.648L320.755 346.219ZM247.275 283.131L224.069 308.525L228.498 312.572L251.704 287.179L247.275 283.131ZM228.307 308.334L225.355 305.636L221.307 310.065L224.26 312.763L228.307 308.334ZM226.309 307.487L220.026 255.957L214.07 256.683L220.353 308.213L226.309 307.487ZM219.072 254.106C218.93 253.976 218.913 253.926 218.939 253.972C218.971 254.031 219.035 254.178 219.044 254.39C219.054 254.602 219.004 254.754 218.977 254.816C218.955 254.864 218.968 254.813 219.098 254.671L214.669 250.623C213.772 251.604 212.974 252.972 213.05 254.66C213.126 256.347 214.043 257.638 215.025 258.535L219.072 254.106ZM219.098 254.671C219.227 254.529 219.277 254.512 219.231 254.537C219.172 254.57 219.025 254.633 218.813 254.643C218.602 254.653 218.449 254.603 218.387 254.575C218.34 254.554 218.391 254.567 218.532 254.696L222.58 250.267C221.599 249.371 220.231 248.573 218.543 248.649C216.856 248.725 215.565 249.642 214.669 250.623L219.098 254.671ZM218.532 254.696C218.452 254.622 218.437 254.581 218.462 254.627C218.489 254.674 218.543 254.788 218.605 254.997L224.355 253.281C224.044 252.239 223.518 251.125 222.58 250.267L218.532 254.696ZM219.456 256.353L247.212 281.719L251.26 277.29L223.504 251.924L219.456 256.353ZM251.45 281.528L255.228 277.394L250.799 273.347L247.021 277.48L251.45 281.528ZM255.954 275.966C255.997 275.753 256.041 275.635 256.063 275.585C256.084 275.538 256.073 275.58 255.999 275.661L251.57 271.613C250.713 272.551 250.289 273.709 250.073 274.774L255.954 275.966ZM255.999 275.661C256.129 275.519 256.179 275.502 256.133 275.527C256.074 275.56 255.927 275.623 255.715 275.633C255.503 275.642 255.351 275.593 255.289 275.565C255.241 275.544 255.292 275.556 255.434 275.686L259.482 271.257C258.501 270.36 257.133 269.563 255.445 269.639C253.758 269.715 252.467 270.632 251.57 271.613L255.999 275.661ZM255.434 275.686C255.576 275.816 255.593 275.865 255.568 275.82C255.535 275.761 255.472 275.613 255.462 275.402C255.453 275.19 255.502 275.038 255.53 274.976C255.551 274.928 255.539 274.979 255.409 275.121L259.838 279.169C260.735 278.188 261.532 276.819 261.456 275.132C261.38 273.445 260.463 272.154 259.482 271.257L255.434 275.686ZM255.409 275.121C255.483 275.04 255.524 275.025 255.478 275.051C255.431 275.077 255.317 275.132 255.108 275.194L256.824 280.944C257.866 280.633 258.98 280.107 259.838 279.169L255.409 275.121ZM253.752 276.045L249.974 280.179L254.403 284.226L258.181 280.093L253.752 276.045ZM250.165 284.417L319.406 347.695L323.453 343.266L254.212 279.988L250.165 284.417ZM248.561 280.242L223.315 257.171L219.268 261.6L244.513 284.671L248.561 280.242ZM218.312 259.735L223.589 304.657L229.548 303.957L224.271 259.035L218.312 259.735ZM228.783 306.331L248.752 284.481L244.323 280.433L224.354 302.283L228.783 306.331ZM356.55 295.785L359.234 294.445L359.225 294.428L359.217 294.411L356.55 295.785ZM358.446 306.459L361.427 306.793L361.428 306.782L361.429 306.77L358.446 306.459ZM341.715 324.766L342.23 327.721L342.304 327.708L342.378 327.692L341.715 324.766ZM331.05 323.688L329.83 326.429L329.892 326.457L329.956 326.482L331.05 323.688ZM235.496 238.802L237.52 236.588L236.907 236.027L236.092 235.862L235.496 238.802ZM238.195 235.849L235.32 236.707L235.557 237.503L236.171 238.064L238.195 235.849ZM331.854 319.547L330.597 322.271L330.652 322.296L330.709 322.32L331.854 319.547ZM340.677 320.565L341.182 323.522L341.221 323.516L341.259 323.508L340.677 320.565ZM354.304 305.654L351.321 305.339L351.317 305.377L351.313 305.416L354.304 305.654ZM352.497 296.958L349.838 298.348L349.867 298.402L349.897 298.455L352.497 296.958ZM260.862 211.047L262.885 208.832L262.272 208.272L261.458 208.107L260.862 211.047ZM263.56 208.094L260.685 208.952L260.923 209.748L261.536 210.309L263.56 208.094ZM347.755 289.103C350.241 291.375 352.283 294.053 353.883 297.159L359.217 294.411C357.301 290.692 354.829 287.439 351.803 284.674L347.755 289.103ZM353.866 297.126C355.263 299.923 355.8 302.907 355.462 306.148L361.429 306.77C361.883 302.425 361.155 298.293 359.234 294.445L353.866 297.126ZM355.464 306.125C355.156 308.879 353.622 312.033 350.363 315.599L354.792 319.647C358.549 315.536 360.928 311.248 361.427 306.793L355.464 306.125ZM350.363 315.599C347.009 319.27 343.894 321.197 341.053 321.84L342.378 327.692C346.824 326.685 350.951 323.85 354.792 319.647L350.363 315.599ZM341.2 321.81C338.091 322.352 335.092 322.049 332.143 320.895L329.956 326.482C333.924 328.036 338.036 328.452 342.23 327.721L341.2 321.81ZM332.269 320.947C329.092 319.534 326.253 317.679 323.739 315.382L319.691 319.811C322.689 322.55 326.073 324.757 329.83 326.429L332.269 320.947ZM323.739 315.382L237.52 236.588L233.472 241.017L319.691 319.811L323.739 315.382ZM236.092 235.862C235.879 235.819 235.761 235.775 235.711 235.753C235.664 235.731 235.706 235.742 235.787 235.816L231.739 240.245C232.677 241.103 233.834 241.526 234.9 241.742L236.092 235.862ZM235.787 235.816C235.645 235.687 235.628 235.637 235.653 235.683C235.686 235.742 235.749 235.889 235.759 236.101C235.768 236.312 235.718 236.465 235.691 236.526C235.67 236.574 235.682 236.523 235.812 236.381L231.383 232.334C230.486 233.315 229.689 234.683 229.765 236.37C229.841 238.058 230.758 239.349 231.739 240.245L235.787 235.816ZM235.812 236.381C235.942 236.239 235.991 236.222 235.946 236.248C235.887 236.281 235.739 236.344 235.528 236.354C235.316 236.363 235.164 236.313 235.102 236.286C235.054 236.264 235.105 236.277 235.247 236.407L239.295 231.978C238.313 231.081 236.945 230.284 235.258 230.36C233.571 230.436 232.28 231.353 231.383 232.334L235.812 236.381ZM235.247 236.407C235.166 236.333 235.151 236.292 235.177 236.337C235.203 236.385 235.258 236.499 235.32 236.707L241.069 234.992C240.759 233.95 240.233 232.835 239.295 231.978L235.247 236.407ZM236.171 238.064L322.39 316.858L326.438 312.429L240.219 233.635L236.171 238.064ZM322.39 316.858C324.794 319.055 327.536 320.858 330.597 322.271L333.111 316.823C330.583 315.656 328.364 314.19 326.438 312.429L322.39 316.858ZM330.709 322.32C334.101 323.72 337.613 324.133 341.182 323.522L340.171 317.608C337.746 318.023 335.377 317.756 332.999 316.774L330.709 322.32ZM341.259 323.508C345.164 322.736 348.68 320.405 351.839 316.949L347.41 312.901C344.813 315.744 342.364 317.173 340.095 317.622L341.259 323.508ZM351.839 316.949C354.99 313.501 356.983 309.81 357.295 305.892L351.313 305.416C351.143 307.56 350.016 310.049 347.41 312.901L351.839 316.949ZM357.287 305.97C357.683 302.226 356.956 298.691 355.097 295.462L349.897 298.455C351.11 300.561 351.587 302.824 351.321 305.339L357.287 305.97ZM355.156 295.569C353.559 292.513 351.544 289.856 349.104 287.626L345.057 292.055C346.948 293.784 348.544 295.872 349.838 298.348L355.156 295.569ZM349.104 287.626L262.885 208.832L258.838 213.261L345.057 292.055L349.104 287.626ZM261.458 208.107C261.244 208.063 261.126 208.019 261.076 207.997C261.029 207.976 261.071 207.987 261.152 208.061L257.104 212.49C258.042 213.347 259.2 213.771 260.265 213.987L261.458 208.107ZM261.152 208.061C261.01 207.931 260.993 207.881 261.018 207.927C261.051 207.986 261.115 208.133 261.124 208.345C261.134 208.557 261.084 208.709 261.056 208.771C261.035 208.819 261.048 208.768 261.177 208.626L256.748 204.578C255.852 205.559 255.054 206.927 255.13 208.615C255.206 210.302 256.123 211.593 257.104 212.49L261.152 208.061ZM261.177 208.626C261.307 208.484 261.357 208.467 261.311 208.492C261.252 208.525 261.105 208.589 260.893 208.598C260.681 208.608 260.529 208.558 260.467 208.53C260.419 208.509 260.47 208.522 260.612 208.651L264.66 204.222C263.679 203.326 262.311 202.528 260.623 202.604C258.936 202.68 257.645 203.597 256.748 204.578L261.177 208.626ZM260.612 208.651C260.531 208.578 260.517 208.536 260.542 208.582C260.568 208.629 260.623 208.743 260.685 208.952L266.435 207.236C266.124 206.194 265.598 205.08 264.66 204.222L260.612 208.651ZM261.536 210.309L347.755 289.103L351.803 284.674L265.584 205.879L261.536 210.309ZM429.133 495.932L427.109 498.147L428.026 498.985L429.268 498.929L429.133 495.932ZM426.434 498.885L429.431 498.75L429.375 497.509L428.458 496.671L426.434 498.885ZM326.485 407.543L328.509 405.329L327.896 404.768L327.081 404.603L326.485 407.543ZM329.184 404.591L326.309 405.448L326.546 406.245L327.16 406.805L329.184 404.591ZM429.268 498.929C429.119 498.936 428.966 498.909 428.836 498.857C428.715 498.808 428.67 498.761 428.695 498.783L432.742 494.354C431.776 493.471 430.499 492.868 428.998 492.935L429.268 498.929ZM428.695 498.783C428.837 498.913 428.854 498.963 428.828 498.917C428.796 498.858 428.732 498.711 428.723 498.499C428.713 498.287 428.763 498.135 428.79 498.073C428.812 498.025 428.799 498.076 428.669 498.218L433.098 502.266C433.995 501.285 434.792 499.917 434.717 498.229C434.641 496.542 433.724 495.251 432.742 494.354L428.695 498.783ZM428.669 498.218C428.54 498.36 428.49 498.377 428.536 498.352C428.595 498.319 428.742 498.256 428.954 498.246C429.165 498.237 429.318 498.286 429.38 498.314C429.427 498.335 429.376 498.323 429.234 498.193L425.187 502.622C426.168 503.519 427.536 504.316 429.223 504.24C430.911 504.164 432.202 503.247 433.098 502.266L428.669 498.218ZM429.234 498.193C429.21 498.17 429.261 498.21 429.32 498.327C429.384 498.452 429.425 498.602 429.431 498.75L423.437 499.02C423.505 500.521 424.22 501.739 425.187 502.622L429.234 498.193ZM428.458 496.671L328.509 405.329L324.461 409.758L424.411 501.1L428.458 496.671ZM327.081 404.603C326.868 404.56 326.75 404.516 326.7 404.494C326.653 404.473 326.695 404.484 326.776 404.557L322.728 408.986C323.666 409.844 324.823 410.267 325.889 410.483L327.081 404.603ZM326.776 404.557C326.634 404.428 326.617 404.378 326.642 404.424C326.675 404.483 326.738 404.63 326.748 404.842C326.757 405.053 326.707 405.206 326.68 405.268C326.659 405.315 326.671 405.264 326.801 405.122L322.372 401.075C321.475 402.056 320.678 403.424 320.754 405.111C320.83 406.799 321.747 408.09 322.728 408.986L326.776 404.557ZM326.801 405.122C326.931 404.981 326.98 404.963 326.935 404.989C326.876 405.022 326.728 405.085 326.517 405.095C326.305 405.104 326.152 405.054 326.091 405.027C326.043 405.006 326.094 405.018 326.236 405.148L330.284 400.719C329.302 399.822 327.934 399.025 326.247 399.101C324.56 399.177 323.269 400.094 322.372 401.075L326.801 405.122ZM326.236 405.148C326.155 405.074 326.14 405.033 326.166 405.078C326.192 405.126 326.247 405.24 326.309 405.448L332.058 403.733C331.748 402.691 331.222 401.576 330.284 400.719L326.236 405.148ZM327.16 406.805L427.109 498.147L431.157 493.718L331.207 402.376L327.16 406.805ZM353.453 398.194L351.429 400.409L352.346 401.247L353.588 401.191L353.453 398.194ZM350.754 401.147L353.751 401.012L353.696 399.771L352.778 398.933L350.754 401.147ZM346.473 397.234L348.497 395.02L347.883 394.459L347.069 394.294L346.473 397.234ZM349.171 394.282L346.297 395.139L346.534 395.936L347.148 396.496L349.171 394.282ZM443.363 480.362L441.339 482.576L442.256 483.414L443.498 483.359L443.363 480.362ZM440.664 483.314L443.661 483.179L443.605 481.938L442.688 481.1L440.664 483.314ZM370.242 418.957L372.266 416.742L371.653 416.182L370.838 416.016L370.242 418.957ZM372.941 416.004L370.066 416.862L370.304 417.658L370.917 418.219L372.941 416.004ZM353.588 401.191C353.439 401.198 353.286 401.171 353.156 401.119C353.035 401.07 352.99 401.023 353.015 401.045L357.063 396.616C356.096 395.733 354.819 395.13 353.318 395.197L353.588 401.191ZM353.015 401.045C353.157 401.175 353.174 401.225 353.149 401.179C353.116 401.12 353.052 400.973 353.043 400.761C353.033 400.549 353.083 400.397 353.111 400.335C353.132 400.287 353.119 400.338 352.989 400.48L357.419 404.528C358.315 403.547 359.113 402.179 359.037 400.491C358.961 398.804 358.044 397.513 357.063 396.616L353.015 401.045ZM352.989 400.48C352.86 400.622 352.81 400.639 352.856 400.614C352.915 400.581 353.062 400.518 353.274 400.508C353.486 400.498 353.638 400.548 353.7 400.576C353.747 400.597 353.697 400.585 353.555 400.455L349.507 404.884C350.488 405.78 351.856 406.578 353.544 406.502C355.231 406.426 356.522 405.509 357.419 404.528L352.989 400.48ZM353.555 400.455C353.53 400.432 353.581 400.472 353.64 400.589C353.704 400.714 353.745 400.864 353.751 401.012L347.757 401.282C347.825 402.783 348.54 404 349.507 404.884L353.555 400.455ZM352.778 398.933L348.497 395.02L344.449 399.449L348.731 403.362L352.778 398.933ZM347.069 394.294C346.856 394.251 346.737 394.207 346.688 394.185C346.64 394.164 346.683 394.175 346.763 394.248L342.716 398.677C343.654 399.535 344.811 399.958 345.877 400.175L347.069 394.294ZM346.763 394.248C346.621 394.119 346.604 394.069 346.63 394.115C346.663 394.174 346.726 394.321 346.736 394.533C346.745 394.744 346.695 394.897 346.668 394.959C346.646 395.006 346.659 394.955 346.789 394.814L342.36 390.766C341.463 391.747 340.666 393.115 340.742 394.802C340.818 396.49 341.735 397.781 342.716 398.677L346.763 394.248ZM346.789 394.814C346.919 394.672 346.968 394.654 346.922 394.68C346.863 394.713 346.716 394.776 346.504 394.786C346.293 394.795 346.14 394.745 346.079 394.718C346.031 394.697 346.082 394.709 346.224 394.839L350.271 390.41C349.29 389.513 347.922 388.716 346.235 388.792C344.547 388.868 343.256 389.785 342.36 390.766L346.789 394.814ZM346.224 394.839C346.143 394.765 346.128 394.724 346.153 394.769C346.18 394.817 346.234 394.931 346.297 395.139L352.046 393.424C351.735 392.382 351.21 391.267 350.271 390.41L346.224 394.839ZM347.148 396.496L351.429 400.409L355.477 395.98L351.195 392.067L347.148 396.496ZM443.498 483.359C443.349 483.365 443.196 483.338 443.066 483.286C442.945 483.237 442.9 483.19 442.925 483.213L446.972 478.783C446.006 477.9 444.729 477.297 443.228 477.365L443.498 483.359ZM442.925 483.213C443.067 483.342 443.084 483.392 443.058 483.346C443.026 483.287 442.962 483.14 442.953 482.928C442.943 482.716 442.993 482.564 443.02 482.502C443.042 482.455 443.029 482.505 442.899 482.647L447.328 486.695C448.225 485.714 449.022 484.346 448.947 482.658C448.871 480.971 447.954 479.68 446.972 478.783L442.925 483.213ZM442.899 482.647C442.77 482.789 442.72 482.806 442.766 482.781C442.825 482.748 442.972 482.685 443.184 482.675C443.395 482.666 443.548 482.716 443.61 482.743C443.657 482.764 443.606 482.752 443.464 482.622L439.417 487.051C440.398 487.948 441.766 488.745 443.453 488.669C445.141 488.593 446.432 487.676 447.328 486.695L442.899 482.647ZM443.464 482.622C443.44 482.599 443.491 482.639 443.55 482.756C443.614 482.881 443.655 483.031 443.661 483.179L437.667 483.449C437.735 484.95 438.45 486.168 439.417 487.051L443.464 482.622ZM442.688 481.1L372.266 416.742L368.218 421.171L438.641 485.529L442.688 481.1ZM370.838 416.016C370.625 415.973 370.507 415.929 370.457 415.907C370.41 415.886 370.452 415.897 370.533 415.971L366.485 420.4C367.423 421.257 368.58 421.681 369.646 421.897L370.838 416.016ZM370.533 415.971C370.391 415.841 370.374 415.791 370.399 415.837C370.432 415.896 370.495 416.043 370.505 416.255C370.514 416.467 370.464 416.619 370.437 416.681C370.416 416.729 370.428 416.678 370.558 416.536L366.129 412.488C365.232 413.469 364.435 414.837 364.511 416.525C364.587 418.212 365.504 419.503 366.485 420.4L370.533 415.971ZM370.558 416.536C370.688 416.394 370.737 416.377 370.692 416.402C370.633 416.435 370.485 416.499 370.274 416.508C370.062 416.518 369.91 416.468 369.848 416.44C369.8 416.419 369.851 416.432 369.993 416.561L374.041 412.132C373.06 411.236 371.691 410.438 370.004 410.514C368.317 410.59 367.026 411.507 366.129 412.488L370.558 416.536ZM369.993 416.561C369.912 416.488 369.897 416.446 369.923 416.492C369.949 416.539 370.004 416.653 370.066 416.862L375.816 415.146C375.505 414.104 374.979 412.99 374.041 412.132L369.993 416.561ZM370.917 418.219L441.339 482.576L445.387 478.147L374.965 413.789L370.917 418.219ZM461.101 460.952L459.077 463.167L459.994 464.005L461.236 463.949L461.101 460.952ZM458.402 463.905L461.399 463.77L461.343 462.529L460.426 461.69L458.402 463.905ZM389.161 400.627L391.185 398.412L388.971 396.388L386.947 398.603L389.161 400.627ZM383.09 407.27L380.875 405.246L380.037 406.164L380.093 407.405L383.09 407.27ZM380.137 404.572L380.272 407.569L381.513 407.513L382.352 406.596L380.137 404.572ZM386.209 397.928L388.423 399.952L390.447 397.737L388.232 395.714L386.209 397.928ZM367.049 377.98L369.704 376.582L369.695 376.566L369.686 376.55L367.049 377.98ZM364.749 367.75L361.759 367.502L361.756 367.536L361.754 367.57L364.749 367.75ZM369.904 356.476L372.224 358.377L372.696 357.801L372.844 357.072L369.904 356.476ZM372.857 359.174L371.999 356.299L371.096 356.569L370.51 357.306L372.857 359.174ZM369.351 372.497L366.485 373.384L366.496 373.422L366.509 373.459L369.351 372.497ZM376.358 383.507L374.27 385.661L374.302 385.692L374.334 385.722L376.358 383.507ZM388.907 394.975L386.883 397.19L389.098 399.214L391.122 396.999L388.907 394.975ZM399.431 383.46L401.645 385.484L402.206 384.87L402.371 384.056L399.431 383.46ZM402.384 386.158L401.526 383.284L400.73 383.521L400.169 384.135L402.384 386.158ZM391.86 397.674L389.645 395.65L387.621 397.865L389.836 399.888L391.86 397.674ZM461.236 463.949C461.087 463.956 460.934 463.929 460.804 463.876C460.683 463.828 460.638 463.78 460.663 463.803L464.71 459.374C463.744 458.491 462.467 457.888 460.966 457.955L461.236 463.949ZM460.663 463.803C460.805 463.933 460.822 463.982 460.796 463.937C460.763 463.878 460.7 463.73 460.691 463.519C460.681 463.307 460.731 463.155 460.758 463.093C460.78 463.045 460.767 463.096 460.637 463.238L465.066 467.286C465.963 466.305 466.76 464.936 466.685 463.249C466.609 461.562 465.692 460.271 464.71 459.374L460.663 463.803ZM460.637 463.238C460.508 463.38 460.458 463.397 460.504 463.372C460.563 463.339 460.71 463.275 460.922 463.266C461.133 463.256 461.286 463.306 461.348 463.334C461.395 463.355 461.344 463.342 461.202 463.213L457.155 467.642C458.136 468.538 459.504 469.336 461.191 469.26C462.879 469.184 464.17 468.267 465.066 467.286L460.637 463.238ZM461.202 463.213C461.178 463.19 461.229 463.23 461.288 463.346C461.352 463.471 461.393 463.622 461.399 463.77L455.405 464.04C455.473 465.54 456.188 466.758 457.155 467.642L461.202 463.213ZM460.426 461.69L391.185 398.412L387.138 402.841L456.378 466.119L460.426 461.69ZM386.947 398.603L380.875 405.246L385.304 409.294L391.376 402.65L386.947 398.603ZM380.093 407.405C380.086 407.257 380.113 407.103 380.166 406.973C380.214 406.852 380.262 406.807 380.239 406.832L384.668 410.88C385.551 409.913 386.154 408.636 386.087 407.135L380.093 407.405ZM380.239 406.832C380.109 406.974 380.06 406.991 380.105 406.966C380.164 406.933 380.312 406.87 380.523 406.86C380.735 406.851 380.887 406.9 380.949 406.928C380.997 406.949 380.946 406.937 380.804 406.807L376.756 411.236C377.737 412.132 379.106 412.93 380.793 412.854C382.48 412.778 383.771 411.861 384.668 410.88L380.239 406.832ZM380.804 406.807C380.662 406.677 380.645 406.627 380.67 406.673C380.703 406.732 380.767 406.88 380.776 407.091C380.786 407.303 380.736 407.455 380.708 407.517C380.687 407.565 380.7 407.514 380.829 407.372L376.4 403.324C375.504 404.305 374.706 405.674 374.782 407.361C374.858 409.048 375.775 410.339 376.756 411.236L380.804 406.807ZM380.829 407.372C380.852 407.347 380.812 407.398 380.696 407.457C380.571 407.521 380.42 407.562 380.272 407.569L380.002 401.575C378.502 401.642 377.284 402.358 376.4 403.324L380.829 407.372ZM382.352 406.596L388.423 399.952L383.994 395.904L377.923 402.548L382.352 406.596ZM388.232 395.714L375.683 384.245L371.636 388.674L384.185 400.143L388.232 395.714ZM375.683 384.245C373.169 381.948 371.185 379.394 369.704 376.582L364.395 379.378C366.216 382.836 368.638 385.935 371.636 388.674L375.683 384.245ZM369.686 376.55C368.199 373.808 367.562 370.955 367.743 367.929L361.754 367.57C361.504 371.736 362.401 375.703 364.412 379.411L369.686 376.55ZM367.738 367.997C367.98 365.081 369.353 361.882 372.224 358.377L367.583 354.574C364.193 358.712 362.129 363.029 361.759 367.502L367.738 367.997ZM372.844 357.072C372.887 356.858 372.931 356.74 372.953 356.69C372.975 356.643 372.964 356.685 372.89 356.766L368.461 352.718C367.603 353.657 367.18 354.814 366.964 355.88L372.844 357.072ZM372.89 356.766C373.02 356.624 373.069 356.607 373.024 356.632C372.964 356.665 372.817 356.729 372.605 356.738C372.394 356.748 372.241 356.698 372.18 356.67C372.132 356.649 372.183 356.662 372.325 356.791L376.372 352.362C375.391 351.466 374.023 350.668 372.336 350.744C370.648 350.82 369.357 351.737 368.461 352.718L372.89 356.766ZM372.325 356.791C372.467 356.921 372.484 356.971 372.458 356.925C372.425 356.866 372.362 356.719 372.353 356.507C372.343 356.295 372.393 356.143 372.42 356.081C372.442 356.033 372.429 356.084 372.299 356.226L376.728 360.274C377.625 359.293 378.422 357.925 378.346 356.237C378.271 354.55 377.353 353.259 376.372 352.362L372.325 356.791ZM372.299 356.226C372.373 356.146 372.414 356.131 372.369 356.156C372.321 356.183 372.207 356.237 371.999 356.299L373.714 362.049C374.756 361.738 375.871 361.212 376.728 360.274L372.299 356.226ZM370.51 357.306C366.443 362.413 364.778 367.868 366.485 373.384L372.217 371.61C371.274 368.563 371.945 365.136 375.204 361.043L370.51 357.306ZM366.509 373.459C368.081 378.106 370.681 382.182 374.27 385.661L378.446 381.353C375.523 378.519 373.451 375.255 372.193 371.536L366.509 373.459ZM374.334 385.722L386.883 397.19L390.931 392.761L378.382 381.293L374.334 385.722ZM391.122 396.999L401.645 385.484L397.216 381.436L386.693 392.952L391.122 396.999ZM402.371 384.056C402.414 383.843 402.458 383.724 402.481 383.675C402.502 383.627 402.491 383.67 402.417 383.75L397.988 379.703C397.13 380.641 396.707 381.798 396.491 382.864L402.371 384.056ZM402.417 383.75C402.547 383.608 402.596 383.591 402.551 383.617C402.492 383.65 402.344 383.713 402.132 383.722C401.921 383.732 401.768 383.682 401.707 383.655C401.659 383.633 401.71 383.646 401.852 383.776L405.899 379.347C404.918 378.45 403.55 377.653 401.863 377.729C400.175 377.804 398.884 378.722 397.988 379.703L402.417 383.75ZM401.852 383.776C401.994 383.905 402.011 383.955 401.985 383.909C401.952 383.85 401.889 383.703 401.88 383.491C401.87 383.28 401.92 383.127 401.947 383.065C401.969 383.018 401.956 383.069 401.826 383.211L406.255 387.258C407.152 386.277 407.949 384.909 407.874 383.222C407.798 381.534 406.881 380.243 405.899 379.347L401.852 383.776ZM401.826 383.211C401.9 383.13 401.941 383.115 401.896 383.14C401.848 383.167 401.734 383.221 401.526 383.284L403.241 389.033C404.283 388.722 405.398 388.196 406.255 387.258L401.826 383.211ZM400.169 384.135L389.645 395.65L394.074 399.698L404.598 388.182L400.169 384.135ZM389.836 399.888L459.077 463.167L463.125 458.738L393.884 395.459L389.836 399.888ZM467.177 374.257L469.391 376.281L471.415 374.066L469.201 372.042L467.177 374.257ZM442.081 401.717L439.867 399.693L437.843 401.908L440.058 403.932L442.081 401.717ZM475.653 430.501L474.396 433.225L474.452 433.251L474.508 433.274L475.653 430.501ZM484.476 431.52L484.982 434.477L485.02 434.47L485.058 434.463L484.476 431.52ZM498.086 413.07L495.173 413.79L495.176 413.803L495.18 413.816L498.086 413.07ZM491.791 402.17L493.881 400.018L492.951 399.115L491.656 399.173L491.791 402.17ZM494.489 399.217L491.492 399.352L491.542 400.466L492.307 401.276L494.489 399.217ZM500.4 407.87L503.12 406.604L503.12 406.604L500.4 407.87ZM501.988 417.991L504.966 418.351L504.968 418.338L504.969 418.325L501.988 417.991ZM485.367 435.585L485.882 438.541L485.913 438.535L485.945 438.529L485.367 435.585ZM474.701 434.508L473.481 437.249L473.544 437.277L473.607 437.301L474.701 434.508ZM415.647 380.539L412.963 381.88L412.986 381.925L413.01 381.97L415.647 380.539ZM413.616 370.013L410.632 369.702L410.629 369.734L410.626 369.766L413.616 370.013ZM430.211 351.854L430.726 354.81L430.758 354.804L430.789 354.798L430.211 351.854ZM440.877 352.932L439.689 355.686L439.736 355.706L439.783 355.725L440.877 352.932ZM461.526 374.511L463.74 376.535L465.764 374.321L463.55 372.297L461.526 374.511ZM440.208 356.925L438.95 359.649L438.969 359.658L438.988 359.666L440.208 356.925ZM431.52 355.759L431.925 358.732L431.975 358.725L432.025 358.716L431.52 355.759ZM417.893 370.67L420.883 370.908L420.884 370.897L420.885 370.887L417.893 370.67ZM419.699 379.366L417.041 380.756L417.059 380.792L417.079 380.827L419.699 379.366ZM439.129 399.019L437.105 401.233L439.319 403.257L441.343 401.042L439.129 399.019ZM464.962 372.233L439.867 399.693L444.296 403.741L469.391 376.281L464.962 372.233ZM440.058 403.932L466.041 427.678L470.089 423.249L444.105 399.503L440.058 403.932ZM466.041 427.678C468.534 429.956 471.322 431.807 474.396 433.225L476.91 427.777C474.395 426.616 472.124 425.109 470.089 423.249L466.041 427.678ZM474.508 433.274C477.9 434.675 481.413 435.087 484.982 434.477L483.971 428.563C481.546 428.977 479.176 428.71 476.798 427.728L474.508 433.274ZM485.058 434.463C488.945 433.694 492.418 431.427 495.504 428.051L491.075 424.003C488.583 426.729 486.181 428.124 483.894 428.577L485.058 434.463ZM495.504 428.051C500.043 423.084 502.384 417.751 500.991 412.325L495.18 413.816C495.846 416.413 494.99 419.719 491.075 424.003L495.504 428.051ZM500.998 412.351C499.822 407.595 497.434 403.468 493.881 400.018L489.701 404.322C492.464 407.005 494.272 410.145 495.173 413.79L500.998 412.351ZM491.656 399.173C491.804 399.166 491.958 399.194 492.088 399.246C492.209 399.295 492.254 399.342 492.229 399.319L488.181 403.748C489.148 404.632 490.425 405.235 491.926 405.167L491.656 399.173ZM492.229 399.319C492.087 399.189 492.07 399.14 492.095 399.185C492.128 399.244 492.192 399.392 492.201 399.604C492.211 399.815 492.161 399.968 492.133 400.029C492.112 400.077 492.125 400.026 492.254 399.884L487.825 395.837C486.929 396.818 486.131 398.186 486.207 399.873C486.283 401.561 487.2 402.852 488.181 403.748L492.229 399.319ZM492.254 399.884C492.384 399.742 492.434 399.725 492.388 399.751C492.329 399.784 492.182 399.847 491.97 399.856C491.758 399.866 491.606 399.816 491.544 399.789C491.496 399.767 491.547 399.78 491.689 399.91L495.737 395.481C494.756 394.584 493.388 393.787 491.7 393.863C490.013 393.938 488.722 394.855 487.825 395.837L492.254 399.884ZM491.689 399.91C491.714 399.932 491.663 399.892 491.604 399.776C491.54 399.651 491.499 399.501 491.492 399.352L497.486 399.083C497.419 397.582 496.703 396.364 495.737 395.481L491.689 399.91ZM492.307 401.276C494.574 403.678 496.358 406.296 497.68 409.136L503.12 406.604C501.516 403.158 499.36 400.008 496.671 397.158L492.307 401.276ZM497.68 409.136C498.899 411.756 499.352 414.573 499.006 417.657L504.969 418.325C505.431 414.2 504.826 410.27 503.12 406.604L497.68 409.136ZM499.009 417.632C498.7 420.196 497.213 423.216 494.027 426.702L498.456 430.749C502.106 426.755 504.451 422.618 504.966 418.351L499.009 417.632ZM494.027 426.702C490.797 430.236 487.708 432.068 484.789 432.641L485.945 438.529C490.51 437.633 494.67 434.892 498.456 430.749L494.027 426.702ZM484.852 432.63C481.742 433.172 478.743 432.869 475.795 431.715L473.607 437.301C477.576 438.856 481.688 439.271 485.882 438.541L484.852 432.63ZM475.921 431.767C472.743 430.353 469.905 428.499 467.391 426.201L463.343 430.631C466.341 433.37 469.725 435.577 473.481 437.249L475.921 431.767ZM467.391 426.201L424.576 387.074L420.529 391.503L463.343 430.631L467.391 426.201ZM424.576 387.074C421.955 384.679 419.866 382.024 418.284 379.109L413.01 381.97C414.927 385.504 417.441 388.682 420.529 391.503L424.576 387.074ZM418.331 379.199C416.916 376.366 416.346 373.407 416.606 370.261L410.626 369.766C410.275 374.009 411.059 378.067 412.963 381.88L418.331 379.199ZM416.6 370.325C416.908 367.366 418.456 364.124 421.686 360.59L417.257 356.543C413.471 360.685 411.115 365.075 410.632 369.702L416.6 370.325ZM421.686 360.59C424.923 357.049 427.946 355.294 430.726 354.81L429.697 348.899C425.173 349.687 421.036 352.407 417.257 356.543L421.686 360.59ZM430.789 354.798C433.962 354.175 436.9 354.483 439.689 355.686L442.065 350.177C438.118 348.474 433.945 348.064 429.634 348.91L430.789 354.798ZM439.783 355.725C442.885 356.94 445.729 358.72 448.323 361.09L452.37 356.661C449.255 353.815 445.787 351.632 441.971 350.138L439.783 355.725ZM448.323 361.09L465.153 376.471L469.201 372.042L452.37 356.661L448.323 361.09ZM463.55 372.297L449.672 359.614L445.624 364.043L459.502 376.726L463.55 372.297ZM449.672 359.614C447.179 357.336 444.43 355.521 441.427 354.185L438.988 359.666C441.378 360.73 443.589 362.183 445.624 364.043L449.672 359.614ZM441.465 354.202C438.127 352.661 434.617 352.186 431.014 352.802L432.025 358.716C434.417 358.307 436.699 358.61 438.95 359.649L441.465 354.202ZM431.114 352.787C427.087 353.336 423.461 355.684 420.21 359.241L424.639 363.289C427.324 360.35 429.762 359.027 431.925 358.732L431.114 352.787ZM420.21 359.241C417.096 362.648 415.194 366.393 414.9 370.454L420.885 370.887C421.057 368.509 422.176 365.983 424.639 363.289L420.21 359.241ZM414.902 370.432C414.615 374.042 415.341 377.503 417.041 380.756L422.358 377.976C421.167 375.697 420.688 373.361 420.883 370.908L414.902 370.432ZM417.079 380.827C418.68 383.697 420.735 386.273 423.227 388.551L427.275 384.122C425.24 382.262 423.594 380.191 422.32 377.905L417.079 380.827ZM423.227 388.551L437.105 401.233L441.153 396.804L427.275 384.122L423.227 388.551ZM441.343 401.042L463.74 376.535L459.311 372.487L436.914 396.995L441.343 401.042Z"
    fill="#000000" />
</svg>